<svg xmlns="http://www.w3.org/2000/svg" width="600" height="450" viewBox="0 0 600 450">
  <defs>
    <style>
      .d { fill: none; stroke: #1a1423; stroke-width: 1.4; stroke-linecap: round; stroke-linejoin: round; opacity: 0.10; }
    </style>
  </defs>

  <!-- BURGER (top-left, 70,55) -->
  <g class="d" transform="translate(70,55)">
    <path d="M -28 0 Q -28 -22 0 -22 Q 28 -22 28 0 Z"/>
    <path d="M -30 2 L 30 2"/>
    <path d="M -30 8 Q -25 14 -15 10 Q -5 14 5 10 Q 15 14 25 10 Q 30 12 30 8"/>
    <path d="M -30 14 L 30 14"/>
    <path d="M -28 20 Q -28 28 0 28 Q 28 28 28 20 Z"/>
    <circle cx="-12" cy="-14" r="1.2"/>
    <circle cx="0" cy="-17" r="1.2"/>
    <circle cx="12" cy="-13" r="1.2"/>
  </g>

  <!-- FRIES (170,40) -->
  <g class="d" transform="translate(170,55)">
    <path d="M -18 12 L -14 -22 L -8 -24 L -4 12 Z"/>
    <path d="M -8 12 L -4 -28 L 4 -28 L 6 12 Z"/>
    <path d="M 4 12 L 8 -22 L 14 -20 L 16 12 Z"/>
    <path d="M -22 12 L 20 12 L 18 28 L -20 28 Z"/>
    <path d="M -20 18 L 18 18"/>
  </g>

  <!-- PIZZA SLICE (270,55) -->
  <g class="d" transform="translate(270,55)">
    <path d="M 0 -25 L -28 22 L 28 22 Z"/>
    <path d="M -22 14 L 22 14"/>
    <circle cx="-8" cy="2" r="3"/>
    <circle cx="10" cy="6" r="2.5"/>
    <circle cx="0" cy="-8" r="2"/>
  </g>

  <!-- HOT DOG (370,55) -->
  <g class="d" transform="translate(370,55)">
    <path d="M -28 -8 Q -32 0 -28 8 L 28 8 Q 32 0 28 -8 Z"/>
    <path d="M -24 -4 Q 0 -10 24 -4"/>
    <path d="M -20 0 L 20 0" stroke-dasharray="3,3"/>
  </g>

  <!-- SODA CUP (470,55) -->
  <g class="d" transform="translate(470,55)">
    <path d="M -16 -22 L 16 -22 L 13 22 L -13 22 Z"/>
    <path d="M -18 -22 L 18 -22"/>
    <path d="M -4 -32 L 4 -32 L 4 -22"/>
    <path d="M -10 -10 L 10 -10"/>
  </g>

  <!-- POPCORN (560,55) -->
  <g class="d" transform="translate(560,55)">
    <path d="M -18 -8 L -14 22 L 14 22 L 18 -8 Z"/>
    <path d="M -18 -8 L 18 -8 L 14 -2 L -14 -2 Z"/>
    <circle cx="-8" cy="-14" r="5"/>
    <circle cx="2" cy="-18" r="5"/>
    <circle cx="12" cy="-12" r="4"/>
    <path d="M -14 4 L -14 14 M -6 0 L -6 18 M 2 4 L 2 16 M 10 0 L 10 18"/>
  </g>

  <!-- CUPCAKE (120,150) -->
  <g class="d" transform="translate(120,150)">
    <path d="M -16 4 L -12 22 L 12 22 L 16 4 Z"/>
    <path d="M -16 4 L 16 4"/>
    <path d="M -12 4 L -12 22 M -6 4 L -6 22 M 0 4 L 0 22 M 6 4 L 6 22 M 12 4 L 12 22"/>
    <path d="M -18 4 Q -18 -10 -8 -12 Q -8 -22 0 -22 Q 8 -22 8 -12 Q 18 -10 18 4 Z"/>
    <circle cx="0" cy="-24" r="2"/>
  </g>

  <!-- KETCHUP BOTTLE (220,150) -->
  <g class="d" transform="translate(220,150)">
    <path d="M -10 -28 L 10 -28 L 10 -22 L 8 -18 L 8 -10 L 14 -4 L 14 24 L -14 24 L -14 -4 L -8 -10 L -8 -18 L -10 -22 Z"/>
    <path d="M -10 -24 L 10 -24"/>
    <path d="M -10 4 L 10 4 L 10 16 L -10 16 Z"/>
  </g>

  <!-- PANCAKES (340,150) -->
  <g class="d" transform="translate(340,150)">
    <ellipse cx="0" cy="12" rx="28" ry="6"/>
    <path d="M -28 12 Q -28 18 0 18 Q 28 18 28 12"/>
    <ellipse cx="0" cy="2" rx="26" ry="5"/>
    <path d="M -26 2 Q -26 7 0 7 Q 26 7 26 2"/>
    <ellipse cx="0" cy="-7" rx="24" ry="5"/>
    <path d="M -24 -7 Q -24 -2 0 -2 Q 24 -2 24 -7"/>
    <path d="M -8 -16 Q 0 -22 6 -14 L 8 -10 L -6 -10 Z"/>
    <path d="M -8 -10 L 10 -2"/>
  </g>

  <!-- SANDWICH (460,150) -->
  <g class="d" transform="translate(460,150)">
    <path d="M -26 -16 L 26 -16 L 22 -8 L -22 -8 Z"/>
    <path d="M -24 -8 L 24 -8 L 24 -2 L -24 -2 Z"/>
    <path d="M -22 -2 Q -20 4 -12 2 Q -4 6 4 2 Q 12 6 20 2 Q 22 4 22 -2"/>
    <path d="M -22 6 L 22 6"/>
    <path d="M -26 14 L 26 14 L 22 22 L -22 22 Z"/>
  </g>

  <!-- TACO (560,150) -->
  <g class="d" transform="translate(560,150)">
    <path d="M -26 12 Q -26 -18 0 -18 Q 26 -18 26 12 Z"/>
    <path d="M -22 6 Q 0 -2 22 6"/>
    <path d="M -16 0 L -10 6 M -4 -4 L 0 4 M 6 -2 L 10 6 M 14 -4 L 16 4"/>
  </g>

  <!-- DONUT (60,260) -->
  <g class="d" transform="translate(60,260)">
    <circle r="22"/>
    <circle r="8"/>
    <path d="M -18 -10 Q -14 -6 -10 -12 M 0 -20 Q 4 -16 8 -22 M 14 -10 Q 18 -6 22 -12 M 16 8 Q 20 12 16 18 M -4 18 Q 0 22 4 18 M -18 8 Q -14 14 -20 16"/>
  </g>

  <!-- ICE CREAM CONE (170,260) -->
  <g class="d" transform="translate(170,260)">
    <path d="M -14 -8 L 14 -8 L 0 28 Z"/>
    <path d="M -12 -4 L 10 22 M 0 -4 L -8 22 M 8 -4 L -2 22"/>
    <path d="M -16 -8 Q -16 -22 0 -22 Q 16 -22 16 -8"/>
    <path d="M -10 -16 Q -4 -22 6 -16"/>
  </g>

  <!-- COFFEE CUP (280,260) -->
  <g class="d" transform="translate(280,260)">
    <path d="M -16 -16 L 16 -16 L 14 18 L -14 18 Z"/>
    <path d="M -18 -16 L 18 -16"/>
    <path d="M 16 -10 Q 26 -10 26 0 Q 26 8 16 8"/>
    <path d="M -10 -28 Q -6 -22 -10 -20 M 0 -30 Q 4 -24 0 -22 M 10 -28 Q 14 -22 10 -20"/>
  </g>

  <!-- BURGER (390,260) -->
  <g class="d" transform="translate(390,260)">
    <path d="M -26 -2 Q -26 -22 0 -22 Q 26 -22 26 -2 Z"/>
    <path d="M -28 2 L 28 2"/>
    <path d="M -28 8 Q -22 14 -14 10 Q -4 14 4 10 Q 14 14 22 10 Q 28 12 28 8"/>
    <path d="M -28 14 L 28 14"/>
    <path d="M -26 22 Q -26 28 0 28 Q 26 28 26 22 Z"/>
  </g>

  <!-- FRIES (500,260) -->
  <g class="d" transform="translate(500,260)">
    <path d="M -16 12 L -12 -20 L -6 -22 L -2 12 Z"/>
    <path d="M -6 12 L -2 -26 L 6 -26 L 8 12 Z"/>
    <path d="M 6 12 L 10 -20 L 16 -18 L 18 12 Z"/>
    <path d="M -20 12 L 20 12 L 16 26 L -16 26 Z"/>
  </g>

  <!-- HOT DOG (90,360) -->
  <g class="d" transform="translate(90,360)">
    <path d="M -26 -8 Q -30 0 -26 8 L 26 8 Q 30 0 26 -8 Z"/>
    <path d="M -22 -4 Q 0 -10 22 -4"/>
    <path d="M -18 0 L 18 0" stroke-dasharray="3,3"/>
  </g>

  <!-- PIZZA SLICE (200,370) -->
  <g class="d" transform="translate(200,370)">
    <path d="M 0 -22 L -25 18 L 25 18 Z"/>
    <path d="M -20 10 L 20 10"/>
    <circle cx="-6" cy="0" r="2.5"/>
    <circle cx="8" cy="4" r="2"/>
  </g>

  <!-- POPCORN (320,360) -->
  <g class="d" transform="translate(320,360)">
    <path d="M -16 -6 L -12 20 L 12 20 L 16 -6 Z"/>
    <path d="M -16 -6 L 16 -6"/>
    <circle cx="-6" cy="-12" r="4.5"/>
    <circle cx="4" cy="-16" r="4.5"/>
    <circle cx="12" cy="-10" r="3.5"/>
    <path d="M -12 0 L -12 14 M -4 -4 L -4 16 M 4 0 L 4 14 M 10 -4 L 10 14"/>
  </g>

  <!-- DONUT (430,360) -->
  <g class="d" transform="translate(430,360)">
    <circle r="20"/>
    <circle r="7"/>
    <path d="M -16 -8 Q -12 -4 -8 -10 M 0 -18 Q 4 -14 8 -20 M 12 -8 Q 16 -4 20 -10 M 14 8 Q 18 12 14 16 M -2 16 Q 2 20 6 16"/>
  </g>

  <!-- CUPCAKE (540,360) -->
  <g class="d" transform="translate(540,360)">
    <path d="M -14 4 L -10 22 L 10 22 L 14 4 Z"/>
    <path d="M -14 4 L 14 4"/>
    <path d="M -10 4 L -10 22 M -4 4 L -4 22 M 4 4 L 4 22 M 10 4 L 10 22"/>
    <path d="M -16 4 Q -16 -10 -6 -12 Q -6 -22 0 -22 Q 6 -22 6 -12 Q 16 -10 16 4 Z"/>
  </g>
</svg>
